# xmcd
#
# Track frame offsets:
#	182
#	21435
#	35520
#	49160
#	64852
#	78387
#	96222
#	113157
#	126472
#	140727
#
# Disc length: 2101 seconds
#
# Revision: 5
# Processed by: cddbd v1.5.2PL0 Copyright (c) Steve Scherf et al.
# Submitted via: EZCDAudioConverter 6.0.7.1
#
DISCID=9108330a
DTITLE=Robin Lee - Black Velvet
DYEAR=1990
DGENRE=Country
TTITLE0=Black Velvet
TTITLE1=How About Goodbye
TTITLE2=He's Helping Me Get Over You
TTITLE3=When The Feeling Comes Around
TTITLE4=Younger Love
TTITLE5=Love Letter
TTITLE6=Something I Know I'm Gonna Love
TTITLE7=Every Little Bit Hurts
TTITLE8=Till I Get It Right
TTITLE9=Sad Eyes
EXTD=
EXTT0=
EXTT1=
EXTT2=
EXTT3=
EXTT4=
EXTT5=
EXTT6=
EXTT7=
EXTT8=
EXTT9=
PLAYORDER=
